<?xml version="1.0" encoding="UTF-8"?>
<svg id="Layer_1" data-name="Layer 1" xmlns="http://www.w3.org/2000/svg" viewBox="0 0 72.46 71.86">
  <path d="M4.71,53.04c.5-1.56,1.37-2.98,2.51-4.17,1.66-1.82,4.34-3.15,5.03-4.1.18-.24.3-.5.22-.79-.49-1.22-3.03-2.05-4.32-2.98C-.57,35.74-.02,26.85.02,17.05c.02-3.97.1-8.64.51-12.38C.79.03,4.36-.48,8.15.46c12.79,3.55,21.81,15.69,25.55,28.04,2.72,8.98,5.32-.99,7.03-4.49,2.06-4.86,4.21-9.3,7.93-13.48,3.36-4.34,17.1-14.07,22.22-9.21,1.55,2.23,1.26,6.09,1.49,9.23.1,3.33.11,6.9.05,10.27.08,10.63-1.12,16.58-10.36,21.61-1.82,1.19-1.56,2.17-.1,3.5,4.63,3.74,6.66,6.1,6.32,12.64-.24,4.17.84,9.49-2.01,11.96-3.17,1.82-7.86,1.15-11.5,1.24-8.68.11-13.47-6.89-16.6-14.01-1.34-2.49-2.35-2.15-3.78.37-1.1,1.89-2.09,4.13-3.27,6.02-1.71,2.82-4.34,4.85-6.78,6.09-4.44,2.23-9.84,1.59-14.68,1.37-3.94-.3-5.24-3.13-5.53-7.16-.17-3.61-.43-7.86.54-11.24l.05-.17ZM9,9.85c-1.65.64-.82,4.52-1.02,6.5,0,2.72,0,5.59,0,8.31-.04,5.15-.19,7.35,3.45,9.4,3.24,1.71,11.67,3.1,14.65,1.06,2.88-3.24-3.88-12.87-5.66-15.76-2.72-3.75-6.59-8.7-11.32-9.52l-.09.02ZM63.63,9.74c-5.31.35-12.61,11.29-15.34,16.1-1.13,2.53-5.31,8.51-1.14,9.65,4.94.98,12.48.43,15.84-3.02,2.33-2.86,1.16-6.16,1.44-9.9,0-2.72,0-5.81,0-8.21.01-2.6,0-4.24-.72-4.58l-.07-.03ZM28.53,48.2c-.88-.72-2.53-.16-3.63.13-6.67,1.96-12.99,4.03-13.44,10.9-.14,2.11,1.03,4.23,3.16,4.75,7.42,1.2,11.65-5.2,13.78-12.09.32-1.08.91-2.72.2-3.61l-.08-.08ZM59.87,62.92c.92-.94,1.27-2.38,1.19-3.7-.42-7.42-8.67-9.84-15.6-11.33-2.04-.25-2.09,1.66-1.62,3.17,1.88,6.29,4.86,12.12,11.31,13.05,1.57.26,3.42.08,4.59-1.04l.13-.13Z" style="fill: #595353;"/>
  <path d="M9.09,9.83c4.73.82,8.6,5.77,11.32,9.52,1.79,2.91,8.54,12.5,5.67,15.76-3.06,2.1-12.56.63-15.6-1.66-2.82-2.09-2.47-4.1-2.5-8.8,0-2.72,0-5.59,0-8.31.19-1.99-.62-5.85,1.02-6.5l.09-.02Z" style="fill: #64a9d5;"/>
  <path d="M63.7,9.77c.73.34.74,1.98.72,4.58v8.21c-.28,3.73.89,7.04-1.44,9.9-3.35,3.45-10.89,4-15.84,3.02-4.17-1.13.02-7.13,1.14-9.65,2.74-4.82,10.03-15.75,15.34-16.1l.07.03Z" style="fill: #70a5d6;"/>
  <path d="M28.6,48.27c.7.89.12,2.53-.2,3.61-2.13,6.88-6.36,13.29-13.78,12.09-2.13-.52-3.3-2.64-3.16-4.75.45-6.87,6.77-8.93,13.44-10.9,1.1-.29,2.75-.85,3.63-.13l.08.08Z" style="fill: #70a5d6;"/>
  <path d="M59.73,63.06c-1.17,1.12-3.02,1.31-4.59,1.04-6.45-.93-9.43-6.75-11.31-13.05-.47-1.51-.42-3.42,1.62-3.17,6.94,1.5,15.18,3.91,15.6,11.33.08,1.33-.26,2.76-1.19,3.7l-.13.13Z" style="fill: #70a5d6;"/>
</svg>