<?xml version="1.0" encoding="UTF-8"?>
<svg id="Layer_1" data-name="Layer 1" xmlns="http://www.w3.org/2000/svg" viewBox="0 0 74.76 84.36">
  <path d="M46.47,76.71c-16.78,17.04-44,3.59-43.69-20.18.1-7.92.07-6.09-1.48-13.44C-1.05,31.9-.7,24.57,6.42,15.15,10.82,9.32,26.44-4.72,33.79,1.6c9.17,7.88-13.5,16.86-15.55,23.42-2.75,8.83,10.18,7.3,14.85,8.28,19.94,4.18,27.94,28.63,13.38,43.41ZM17.83,40.56c-.89,2.95,0,16.61,0,21,0,1.06,4.35,5.71,5.63,6.37,17.34,8.9,22.37-25.41.38-18.87-.34-2.27.89-8.28-.94-9.57-1.43-1.01-4.6-.5-5.07,1.07Z" style="fill: #66a9d5;"/>
  <path d="M53.83,78.06c1.09-3.34,3.12-5.67,4.27-9.22,2.39-7.36,2.39-13.2,0-20.56-1.15-3.55-3.18-5.88-4.27-9.22,27.88-.26,27.91,39.24,0,38.99Z" style="fill: #66a9d5;"/>
  <path d="M17.83,40.56c.48-1.57,3.65-2.08,5.07-1.07,1.82,1.29.59,7.3.94,9.57,21.99-6.54,16.95,27.77-.38,18.87-1.28-.66-5.63-5.31-5.63-6.37,0-4.39-.89-18.05,0-21ZM26.54,54.24c-4.01,1.18-3.79,8.21.85,8.86,7.92,1.1,7.09-11.21-.85-8.86Z" style="fill: #767575;"/>
  <path d="M26.54,54.24c7.95-2.35,8.77,9.96.85,8.86-4.64-.65-4.86-7.67-.85-8.86Z" style="fill: #66a9d5;"/>
</svg>